<svg width="20px"  height="20px" xmlns="http://www.w3.org/2000/svg" xmlns:xlink="http://www.w3.org/1999/xlink" version="1.1" x="0px" y="0px" viewBox="0 0 100 125" style="enable-background:new 0 0 100 100;" xml:space="preserve"><path d="M53.7,52.7c1.8,0,3.2-1.4,3.2-3.2s-1.4-3.2-3.2-3.2c-1.8,0-3.2,1.4-3.2,3.2S51.9,52.7,53.7,52.7z M53.7,48.3  c0.7,0,1.2,0.5,1.2,1.2s-0.5,1.2-1.2,1.2s-1.2-0.5-1.2-1.2S53.1,48.3,53.7,48.3z M76.1,69.8h-8.8V21c0-0.6-0.4-1-1-1H33.7  c0,0,0,0,0,0c-0.1,0-0.2,0-0.4,0.1c0,0,0,0,0,0c-0.1,0-0.1,0.1-0.2,0.1c0,0-0.1,0.1-0.1,0.1c0,0,0,0,0,0c-0.1,0.1-0.1,0.2-0.2,0.3  c0,0,0,0,0,0.1c0,0.1-0.1,0.2-0.1,0.4v48.8h-8.8c-0.6,0-1,0.4-1,1s0.4,1,1,1h9.7L58.8,80c0.1,0,0.2,0,0.3,0c0.2,0,0.4-0.1,0.6-0.2  c0.3-0.2,0.4-0.5,0.4-0.8v-7.2h5.8h0.5h9.8c0.6,0,1-0.4,1-1S76.7,69.8,76.1,69.8z M58.1,77.6l-23.4-7.5v-0.6V22.4l23.4,7.5V77.6z   M65.3,69.8h-5.3V29.2c0-0.4-0.3-0.8-0.7-1L40.1,22h25.2V69.8z"/></svg>