<svg width="20px"  height="20px" xmlns="http://www.w3.org/2000/svg" data-name="Layer 1" viewBox="0 0 100 125" x="0px" y="0px"><title>09</title><path d="M33.08,46.27,30.75,62.59a4,4,0,0,0,4.45,4.54l16.6-2.06a4,4,0,0,0,2.34-1.14L87,31.07A14.09,14.09,0,1,0,67.07,11.15L34.21,44A4,4,0,0,0,33.08,46.27Zm7.73,2.45L72.72,16.81a6.09,6.09,0,0,1,8.61,8.61L49.45,57.3l-10,1.24Z"/><path d="M52.5,4H19A12,12,0,0,0,7,16V84A12,12,0,0,0,19,96H81A12,12,0,0,0,93,84V43.25a4,4,0,1,0-8,0V84a4,4,0,0,1-4,4H19a4,4,0,0,1-4-4V16a4,4,0,0,1,4-4H52.5a4,4,0,1,0,0-8Z"/></svg>